<?xml version="1.0" encoding="utf-8"?>
<!-- Generator: Adobe Illustrator 26.5.0, SVG Export Plug-In . SVG Version: 6.00 Build 0)  -->
<svg version="1.1" id="katman_1" xmlns="http://www.w3.org/2000/svg" xmlns:xlink="http://www.w3.org/1999/xlink" x="0px" y="0px"
	 viewBox="0 0 52.2 63" style="enable-background:new 0 0 52.2 63;" xml:space="preserve">
<style type="text/css">
	.st0{fill:#FFE000;}
	.st1{fill:#FFDE00;}
	.st2{fill:#5CC3DD;}
	.st3{fill:#FFFFFF;}
	.st4{fill:#CEC928;}
	.st5{fill:#E2293F;}
	.st6{fill:#EDEDED;}
	.st7{fill:#203642;}
</style>
<path class="st0" d="M33.9,32.7C33.9,32.7,33.9,32.7,33.9,32.7C33.9,32.7,33.9,32.7,33.9,32.7L33.9,32.7z"/>
<path class="st1" d="M0.9,0.9v8.5c0,5,0.5,11.6,1.9,17.9c0.6,2.9,1.4,5.7,2.4,8.2C7,40.1,9.3,44.2,11.8,48
	C16,54.1,21.1,59,26.1,62.4c5-3.3,10-8.3,14.2-14.4c2.6-3.7,4.8-7.9,6.6-12.5c1.7-4.2,2.8-9.2,3.5-14c0.6-4.4,0.9-8.6,0.9-12.1
	l0.1-8.5H0.9z M38,35.3c-0.3-0.1-0.5-0.1-0.7-0.2C37.1,35.1,37,35,36.9,35c-1.4,1.3-2.9,1.7-4.1,1.5c-0.2,0-0.5-0.1-0.7-0.1
	c-1.3-0.3-2.3-1-2.8-1.4c-1.2,1.1-2.4,1.7-3.7,1.7c-0.1,0-0.1,0-0.2,0c-1.6-0.1-2.9-1.1-3.4-1.6c-1.8,1.6-3.7,1.5-4.9,1.1
	c-1-0.4-1.8-0.9-2.2-1.2c-1.8,1.1-3.5,1.5-5.2,1.2c-1.6-0.3-2.8-1.3-3.4-2c0-0.1,0.1-0.1,0.1-0.1c0-0.1,0.1-0.1,0.1-0.2
	c0.1-0.1,0.1-0.2,0.2-0.3c0.6-0.7,1.3-1.2,2.2-1.4c1.1-0.3,4-0.2,4-0.2c0.2-0.9,0.5-1.8,1-2.5c0.9-1.4,3.1-1.7,4.7-1.2l0.9,0.3
	l0.4-0.9c1-2.4,2.9-3.7,5.5-2.9l0.8,0.3c0.4-0.6,1-1.4,1.5-1.9c1.1-1,2.8-0.9,3.9,0c0,0,0.5,0.4,0.5,0.4c0.1-0.1,2.8-2,4.2,0.1
	c0.2,0.4,0.4,0.8,0.6,1.4c0,0.2,0.1,0.3,0.1,0.5c0.8-0.2,1.9-0.1,2.7,0c1.6,0.2,2,1.6,2,3.2l0,0.5c2.2-0.2,3.3,1.4,3.7,2.8
	c0,0.1,0.1,0.3,0.1,0.4v0c0,0.2,0.1,0.4,0.1,0.6C43.5,36.3,39.9,35.9,38,35.3z"/>
<path class="st2" d="M46.3,32.3c0.3-2-0.6-4-2.6-4.5c0-0.5-0.1-1.4-0.3-1.8c-1.2-3.2-5-2.4-5-2.4c-0.5-1-1-2.3-2.4-2.7
	c-1.1-0.3-2.3,0-3.5,0.5c-1.1-0.7-2.3-1.2-3.6-1c-1.3,0.2-2.5,1.1-3.3,2.1c-2.3-0.5-4.7,0.3-6.2,2.2c-0.3,0.4-0.6,0.8-0.9,1.3
	c-3.2-0.6-5.8,0.8-6.7,3.9c-0.4,0-0.8,0.1-1.2,0.1c-1.1,0.2-2.2,0.7-3,1.6c-0.5,0.5-0.9,1.2-1.2,1.9c0,0.1,0,0.1-0.1,0.2
	c0,0.1,0,0.1-0.1,0.2c0,0.1,0,0.1,0,0.2c0,0.1,0,0.1,0,0.2c0,0,0,0.1,0,0.1c0,0,0,0,0,0c0,0,0,0.1,0,0.1c0,0,0,0,0,0
	C4.3,28,2.9,17.7,2.9,12h46.7c-0.1,5.2-1.7,14.3-3.4,20.5C46.2,32.5,46.2,32.4,46.3,32.3z"/>
<circle class="st3" cx="22.3" cy="38.9" r="0.7"/>
<circle class="st3" cx="16.6" cy="39" r="0.7"/>
<circle class="st3" cx="10.9" cy="38.8" r="0.7"/>
<circle class="st3" cx="13.4" cy="42.9" r="0.7"/>
<circle class="st3" cx="19.6" cy="42.6" r="0.7"/>
<circle class="st3" cx="23.3" cy="51" r="0.7"/>
<circle class="st3" cx="15.4" cy="47.2" r="0.7"/>
<circle class="st3" cx="20.4" cy="47.1" r="0.7"/>
<circle class="st3" cx="18.7" cy="51.6" r="0.7"/>
<circle class="st3" cx="22.6" cy="55.9" r="0.7"/>
<path class="st4" d="M33.9,32.7C33.9,32.7,33.9,32.7,33.9,32.7L33.9,32.7C33.9,32.7,33.9,32.7,33.9,32.7z"/>
<g>
	<g>
		<path class="st3" d="M32.6,37l-0.7,2c-0.1,0.1-0.2,0.2-0.3,0.2c0,0-0.1,0-0.1,0c-0.2-0.1-0.3-0.3-0.2-0.5l0.7-1.9
			C32.1,36.9,32.3,37,32.6,37z"/>
	</g>
	<g>
		<path class="st3" d="M30.1,43.4c0,0-0.1,0-0.1,0c-0.2-0.1-0.3-0.3-0.2-0.5l0.8-2.3c0.1-0.2,0.3-0.3,0.5-0.2
			c0.2,0.1,0.3,0.3,0.2,0.5l-0.8,2.3C30.4,43.3,30.2,43.4,30.1,43.4z"/>
	</g>
	<g>
		<path class="st3" d="M34.7,44c0,0-0.1,0-0.1,0c-0.2-0.1-0.3-0.3-0.2-0.5l0.2-0.6c0.1-0.2,0.3-0.3,0.5-0.2c0.2,0.1,0.3,0.3,0.2,0.5
			L35,43.8C35,43.9,34.8,44,34.7,44z"/>
	</g>
	<g>
		<path class="st3" d="M38.8,40.3c0,0-0.1,0-0.1,0c-0.2-0.1-0.3-0.3-0.2-0.5l1-2.7c0.1-0.2,0.3-0.3,0.5-0.2c0.2,0.1,0.3,0.3,0.2,0.5
			l-1,2.7C39.1,40.2,38.9,40.3,38.8,40.3z"/>
	</g>
	<g>
		<path class="st3" d="M37.3,44.5c0,0-0.1,0-0.1,0C37,44.4,36.9,44.2,37,44l0.8-2.3c0.1-0.2,0.3-0.3,0.5-0.2
			c0.2,0.1,0.3,0.3,0.2,0.5l-0.8,2.3C37.6,44.4,37.5,44.5,37.3,44.5z"/>
	</g>
	<g>
		<path class="st3" d="M35.6,49.4c0,0-0.1,0-0.1,0c-0.2-0.1-0.3-0.3-0.2-0.5l1.1-3.1c0.1-0.2,0.3-0.3,0.5-0.2
			c0.2,0.1,0.3,0.3,0.2,0.5l-1.1,3.1C35.9,49.3,35.7,49.4,35.6,49.4z"/>
	</g>
	<g>
		<path class="st3" d="M34.5,52.7c0,0-0.1,0-0.1,0c-0.2-0.1-0.3-0.3-0.2-0.5l0.6-1.6c0.1-0.2,0.3-0.3,0.5-0.2
			c0.2,0.1,0.3,0.3,0.2,0.5l-0.6,1.6C34.7,52.6,34.6,52.7,34.5,52.7z"/>
	</g>
	<g>
		<path class="st3" d="M33.4,40.9c0,0-0.1,0-0.1,0c-0.2-0.1-0.3-0.3-0.2-0.5l0.9-2.6c0.1-0.2,0.3-0.3,0.5-0.2
			c0.2,0.1,0.3,0.3,0.2,0.5l-0.9,2.6C33.7,40.8,33.6,40.9,33.4,40.9z"/>
	</g>
	<g>
		<path class="st3" d="M31.5,46.4c0,0-0.1,0-0.1,0c-0.2-0.1-0.3-0.3-0.2-0.5l1.2-3.4c0.1-0.2,0.3-0.3,0.5-0.2
			c0.2,0.1,0.3,0.3,0.2,0.5l-1.2,3.4C31.8,46.3,31.7,46.4,31.5,46.4z"/>
	</g>
	<g>
		<path class="st3" d="M26.8,59.9c0,0-0.1,0-0.1,0c-0.2-0.1-0.3-0.3-0.2-0.5l0.2-0.7c0.1-0.2,0.3-0.3,0.5-0.2
			c0.2,0.1,0.3,0.3,0.2,0.5l-0.2,0.7C27.1,59.8,26.9,59.9,26.8,59.9z"/>
	</g>
	<g>
		<path class="st3" d="M29.3,52.8c0,0-0.1,0-0.1,0c-0.2-0.1-0.3-0.3-0.2-0.5l1.5-4.3c0.1-0.2,0.3-0.3,0.5-0.2
			c0.2,0.1,0.3,0.3,0.2,0.5l-1.5,4.3C29.6,52.7,29.4,52.8,29.3,52.8z"/>
	</g>
	<g>
		<path class="st3" d="M27.6,57.6c0,0-0.1,0-0.1,0c-0.2-0.1-0.3-0.3-0.2-0.5l1.2-3.3c0.1-0.2,0.3-0.3,0.5-0.2
			c0.2,0.1,0.3,0.3,0.2,0.5l-1.2,3.3C27.9,57.5,27.7,57.6,27.6,57.6z"/>
	</g>
	<g>
		<path class="st3" d="M37.8,35.8L36,41.1c-0.1,0.1-0.2,0.2-0.3,0.2c0,0-0.1,0-0.1,0c-0.2-0.1-0.3-0.3-0.2-0.5l1.8-5.2
			C37.3,35.7,37.6,35.8,37.8,35.8z"/>
	</g>
	<g>
		<path class="st3" d="M32.6,50.1c0,0-0.1,0-0.1,0c-0.2-0.1-0.3-0.3-0.2-0.5l1.4-3.9c0.1-0.2,0.3-0.3,0.5-0.2
			c0.2,0.1,0.3,0.3,0.2,0.5l-1.4,3.9C32.9,50,32.7,50.1,32.6,50.1z"/>
	</g>
	<g>
		<path class="st3" d="M31.5,53.3c0,0-0.1,0-0.1,0c-0.2-0.1-0.3-0.3-0.2-0.5l0.6-1.6c0.1-0.2,0.3-0.3,0.5-0.2
			c0.2,0.1,0.3,0.3,0.2,0.5L31.8,53C31.7,53.2,31.6,53.3,31.5,53.3z"/>
	</g>
	<g>
		<path class="st3" d="M30.4,56.2c0,0-0.1,0-0.1,0c-0.2-0.1-0.3-0.3-0.2-0.5l0.5-1.4c0.1-0.2,0.3-0.3,0.5-0.2
			c0.2,0.1,0.3,0.3,0.2,0.5L30.7,56C30.7,56.1,30.6,56.2,30.4,56.2z"/>
	</g>
	<g>
		<path class="st3" d="M41.5,40.9c0,0-0.1,0-0.1,0c-0.2-0.1-0.3-0.3-0.2-0.5l1.2-3.3c0.1-0.2,0.3-0.3,0.5-0.2
			c0.2,0.1,0.3,0.3,0.2,0.5l-1.2,3.3C41.8,40.8,41.7,40.9,41.5,40.9z"/>
	</g>
	<g>
		<path class="st3" d="M39.2,47.6c0,0-0.1,0-0.1,0c-0.2-0.1-0.3-0.3-0.2-0.5l0.7-2c0.1-0.2,0.3-0.3,0.5-0.2c0.2,0.1,0.3,0.3,0.2,0.5
			l-0.7,2C39.5,47.5,39.3,47.6,39.2,47.6z"/>
	</g>
	<g>
		<path class="st3" d="M40.3,44.4c0,0-0.1,0-0.1,0C40,44.3,39.9,44.1,40,44l0.7-2c0.1-0.2,0.3-0.3,0.5-0.2c0.2,0.1,0.3,0.3,0.2,0.5
			l-0.7,2C40.6,44.3,40.5,44.4,40.3,44.4z"/>
	</g>
</g>
<path class="st5" d="M24.4,58.2L27,47.3h-4l2.6-10.2c0,0,0,0,0,0c1.3,0,2.5-0.6,3.7-1.7c0.2,0.1,0.4,0.3,0.7,0.5l-3,8.4h3.6
	L24.4,58.2z"/>
<path class="st6" d="M45.3,28.8c-0.1-0.1-0.1-0.1-0.2-0.2c-0.1-0.1-0.2-0.1-0.2-0.2c-0.3-0.2-0.7-0.4-1.1-0.6c0-0.1,0-0.3,0-0.4
	c0-0.1,0-0.2,0-0.4c0-0.3-0.1-0.5-0.1-0.7c0-0.1,0-0.1-0.1-0.2c0,0,0-0.1,0-0.1c-0.1-0.2-0.2-0.4-0.3-0.6c0,0,0,0,0,0
	c-0.1-0.1-0.1-0.2-0.2-0.3c0,0,0,0,0,0c-0.1-0.2-0.2-0.3-0.3-0.4c-0.2-0.3-0.5-0.5-0.8-0.6c-0.1-0.1-0.2-0.1-0.4-0.2
	c0,0-0.1,0-0.1-0.1c-0.1,0-0.1,0-0.2-0.1c-0.2-0.1-0.4-0.1-0.6-0.2c-1.1-0.2-2.1,0-2.1,0v0c-0.3-0.6-0.6-1.4-1.2-1.9
	c-0.1-0.1-0.2-0.2-0.3-0.3c-0.1-0.1-0.3-0.2-0.4-0.3c-0.1-0.1-0.3-0.1-0.5-0.2c-0.2-0.1-0.5-0.1-0.7-0.1c-0.9-0.1-1.9,0.2-2.8,0.6
	c-0.1,0-0.1-0.1-0.2-0.1c-0.3-0.2-0.6-0.3-0.9-0.5c0,0,0,0,0,0c-0.1-0.1-0.2-0.1-0.4-0.1c-0.7-0.2-1.4-0.4-2.2-0.2
	c-1.3,0.2-2.5,1.1-3.3,2.1c-0.2,0-0.3-0.1-0.5-0.1c0,0,0,0,0,0c-0.1,0-0.2,0-0.3,0c0,0,0,0-0.1,0c-0.1,0-0.2,0-0.4,0
	c-0.1,0-0.2,0-0.2,0c0,0,0,0,0,0c-0.1,0-0.2,0-0.2,0c-0.2,0-0.4,0-0.6,0.1c-0.1,0-0.2,0-0.3,0.1c-0.1,0-0.2,0.1-0.3,0.1c0,0,0,0,0,0
	c-0.1,0-0.2,0.1-0.3,0.1c-0.1,0-0.2,0.1-0.3,0.1c0,0,0,0-0.1,0c-0.1,0-0.2,0.1-0.3,0.1c-0.1,0-0.2,0.1-0.3,0.2
	c-0.1,0.1-0.2,0.1-0.3,0.2c-0.1,0.1-0.2,0.1-0.3,0.2c0,0,0,0,0,0c-0.1,0.1-0.2,0.1-0.3,0.2h0c-0.1,0.1-0.1,0.1-0.2,0.2
	c0,0-0.1,0.1-0.1,0.1c0,0,0,0-0.1,0.1C20,24,20,24.1,19.9,24.1c0,0,0,0,0,0c0,0,0,0,0,0c-0.2,0.2-0.3,0.3-0.5,0.5
	c-0.2,0.2-0.3,0.4-0.5,0.6v0c-0.1,0.2-0.3,0.4-0.4,0.7c-0.7-0.1-1.4-0.2-2.1-0.1c-0.1,0-0.1,0-0.2,0c-0.4,0.1-0.8,0.1-1.1,0.3
	c-0.1,0-0.1,0-0.2,0.1c0,0,0,0,0,0c-0.1,0.1-0.3,0.1-0.4,0.2c-0.1,0-0.1,0.1-0.2,0.1c-0.2,0.1-0.3,0.2-0.5,0.3
	c-0.1,0.1-0.2,0.1-0.2,0.2c-0.1,0.1-0.2,0.2-0.3,0.2c-0.1,0.1-0.1,0.1-0.2,0.2c-0.1,0.1-0.2,0.2-0.2,0.3c-0.5,0.6-0.9,1.3-1.1,2.2
	c-0.4,0-0.8,0.1-1.2,0.1c-0.4,0.1-0.8,0.2-1.2,0.4c-0.3,0.1-0.5,0.2-0.8,0.4c-0.4,0.2-0.7,0.5-1,0.8c-0.5,0.5-0.8,1-1.1,1.6
	c0,0.1-0.1,0.2-0.1,0.3c0,0.1,0,0.1-0.1,0.2c0,0,0,0.1,0,0.1c0,0,0,0.1,0,0.1c0,0.1,0,0.1,0,0.2c0,0.1,0,0.1,0,0.2c0,0,0,0.1,0,0.1
	c0,0,0,0,0,0v0c0,0,0,0.1,0,0.1c0,0,0,0,0,0v0c0,0,0,0,0,0c0.5,0.7,1.8,1.8,3.6,2.2c1.7,0.3,3.4-0.1,5.2-1.2
	c0.4,0.3,1.1,0.9,2.2,1.2c1.2,0.4,3.1,0.6,4.9-1.1c0.5,0.5,1.7,1.5,3.4,1.6c0.1,0,0.1,0,0.2,0h0c1.3,0,2.5-0.6,3.7-1.7
	c0.1,0.1,0.3,0.2,0.5,0.4c0.1,0,0.1,0.1,0.2,0.1c0,0,0,0,0,0c0.5,0.3,1.1,0.7,1.9,0.9c0.2,0.1,0.5,0.1,0.7,0.1
	c1.3,0.2,2.8-0.1,4.3-1.5c0.1,0,0.2,0.1,0.3,0.1c0.2,0.1,0.4,0.1,0.7,0.2c1.9,0.6,5.7,1.1,8.1-2.3c0,0,0,0,0,0
	c0.1-0.3,0.2-0.6,0.2-0.9c0-0.1,0-0.2,0-0.3C46.5,31,46.1,29.7,45.3,28.8z M38,35.3c-0.3-0.1-0.5-0.1-0.7-0.2
	C37.1,35.1,37,35,36.9,35c-1.4,1.3-2.9,1.7-4.1,1.5c-0.2,0-0.5-0.1-0.7-0.1c-1.3-0.3-2.3-1-2.8-1.4c-1.2,1.1-2.4,1.7-3.7,1.7
	c-0.1,0-0.1,0-0.2,0c-1.6-0.1-2.9-1.1-3.4-1.6c-1.8,1.6-3.7,1.5-4.9,1.1c-1-0.4-1.8-0.9-2.2-1.2c-1.8,1.1-3.5,1.5-5.2,1.2
	c-1.6-0.3-2.8-1.3-3.4-2c0-0.1,0.1-0.1,0.1-0.1c0-0.1,0.1-0.1,0.1-0.2c0.1-0.1,0.1-0.2,0.2-0.3c0.6-0.7,1.3-1.2,2.2-1.4
	c1.1-0.3,4-0.2,4-0.2c0.2-0.9,0.5-1.8,1-2.5c0.9-1.4,3.1-1.7,4.7-1.2l0.9,0.3l0.4-0.9c1-2.4,2.9-3.7,5.5-2.9l0.8,0.3
	c0.4-0.6,1-1.4,1.5-1.9c1.1-1,2.8-0.9,3.9,0c0,0,0.5,0.4,0.5,0.4c0.1-0.1,2.8-2,4.2,0.1c0.2,0.4,0.4,0.8,0.6,1.4
	c0,0.2,0.1,0.3,0.1,0.5c0.8-0.2,1.9-0.1,2.7,0c1.6,0.2,2,1.6,2,3.2l0,0.5c2.2-0.2,3.3,1.4,3.7,2.8c0,0.1,0.1,0.3,0.1,0.4v0
	c0,0.2,0.1,0.4,0.1,0.6C43.5,36.3,39.9,35.9,38,35.3z"/>
<g>
	<g>
		<path class="st5" d="M24.1,22.4c-1.8,0.1-3.5,0.9-4.7,2.3c-0.3,0.4-0.6,0.8-0.9,1.3c-1.3-0.2-2.5-0.2-3.5,0.2
			c-0.1-0.5-0.1-1-0.1-1.5c0.2-2.4,2.1-4.4,4.6-4.6C21.4,20,23.1,20.9,24.1,22.4z"/>
	</g>
	<g>
		<path class="st0" d="M24.9,21.9c0.1,0.2,0.2,0.3,0.3,0.5c-0.3,0-0.7-0.1-1.1,0c-1-1.5-2.7-2.4-4.6-2.2c-2.4,0.2-4.4,2.1-4.6,4.6
			c0,0.5,0,1,0.1,1.5c-0.8,0.3-1.5,0.8-2.1,1.5l-6.7,1.7l7.8-3.6c0-0.1,0-0.3,0-0.4l-8.4-1.3l8.5,0.2c0-0.2,0.1-0.4,0.1-0.6L5,17.5
			l9.8,4.7c0.2-0.3,0.4-0.6,0.6-0.8l-5-7.2l6,6.2c0.3-0.2,0.7-0.4,1-0.6l-2.1-6.5l3,6.2c0.5-0.1,1-0.2,1.5-0.2c0,0,0.1,0,0.1,0
			l1.1-5.3v5.5c0.4,0.1,0.7,0.2,1,0.3l3.6-5.7L23,20.1c0.3,0.2,0.6,0.4,0.9,0.7l8.4-5.7L24.9,21.9z"/>
	</g>
</g>
<g>
	<path class="st7" d="M4,10.5H2.8V2.4h1.8l1.1,5.8l1.1-5.8h1.7v8.1H7.3V5.5l-1.1,5.1h-1L4,5.5V10.5z"/>
	<path class="st7" d="M9.3,10.5V2.4h3.5v1.2h-2.3v2.2h1.7v1.2h-1.7v2.2h2.3v1.2H9.3z"/>
	<path class="st7" d="M14.7,3.7h-1.3V2.4h3.9v1.2H16v6.9h-1.2V3.7z"/>
	<path class="st7" d="M18,10.5V2.4h3.5v1.2h-2.3v2.2h1.7v1.2h-1.7v2.2h2.3v1.2H18z"/>
	<path class="st7" d="M24.1,2.4c0.5,0,1,0.2,1.4,0.6C25.8,3.3,26,3.8,26,4.3v4.4c0,0.5-0.2,1-0.6,1.4c-0.4,0.4-0.8,0.6-1.4,0.6
		s-1-0.2-1.4-0.6s-0.6-0.8-0.6-1.4V4.3c0-0.5,0.2-1,0.6-1.4C23.1,2.5,23.5,2.4,24.1,2.4z M24.7,4.3c0-0.2-0.1-0.4-0.2-0.5
		c-0.1-0.1-0.3-0.2-0.5-0.2c-0.2,0-0.4,0.1-0.5,0.2c-0.1,0.1-0.2,0.3-0.2,0.5v4.4c0,0.2,0.1,0.4,0.2,0.5c0.1,0.1,0.3,0.2,0.5,0.2
		c0.2,0,0.4-0.1,0.5-0.2c0.1-0.1,0.2-0.3,0.2-0.5V4.3z"/>
	<path class="st7" d="M28.8,2.4c0.7,0,1.2,0.2,1.5,0.6c0.3,0.3,0.4,0.8,0.4,1.4v1.2c0,0.6-0.2,1.1-0.7,1.4l0.9,3.5h-1.3l-0.8-3.1
		c0,0-0.1,0-0.1,0h-0.7v3h-1.2V2.4H28.8z M29.5,4.4c0-0.5-0.2-0.7-0.7-0.7h-0.7v2.6h0.7c0.2,0,0.4-0.1,0.5-0.2
		c0.1-0.1,0.2-0.3,0.2-0.5V4.4z"/>
	<path class="st7" d="M33.5,2.4c0.5,0,1,0.2,1.4,0.6c0.4,0.4,0.6,0.8,0.6,1.4v4.4c0,0.5-0.2,1-0.6,1.4c-0.4,0.4-0.8,0.6-1.4,0.6
		s-1-0.2-1.4-0.6s-0.6-0.8-0.6-1.4V4.3c0-0.5,0.2-1,0.6-1.4C32.5,2.5,33,2.4,33.5,2.4z M34.2,4.3c0-0.2-0.1-0.4-0.2-0.5
		c-0.1-0.1-0.3-0.2-0.5-0.2c-0.2,0-0.4,0.1-0.5,0.2c-0.1,0.1-0.2,0.3-0.2,0.5v4.4c0,0.2,0.1,0.4,0.2,0.5c0.1,0.1,0.3,0.2,0.5,0.2
		c0.2,0,0.4-0.1,0.5-0.2c0.1-0.1,0.2-0.3,0.2-0.5V4.3z"/>
	<path class="st7" d="M39.7,10.5h-3.4V2.4h1.2v6.9h2.1V10.5z"/>
	<path class="st7" d="M42.2,2.4c0.5,0,1,0.2,1.4,0.6c0.4,0.4,0.6,0.8,0.6,1.4v4.4c0,0.5-0.2,1-0.6,1.4c-0.4,0.4-0.8,0.6-1.4,0.6
		s-1-0.2-1.4-0.6s-0.6-0.8-0.6-1.4V4.3c0-0.5,0.2-1,0.6-1.4C41.2,2.5,41.7,2.4,42.2,2.4z M42.9,4.3c0-0.2-0.1-0.4-0.2-0.5
		c-0.1-0.1-0.3-0.2-0.5-0.2c-0.2,0-0.4,0.1-0.5,0.2c-0.1,0.1-0.2,0.3-0.2,0.5v4.4c0,0.2,0.1,0.4,0.2,0.5c0.1,0.1,0.3,0.2,0.5,0.2
		c0.2,0,0.4-0.1,0.5-0.2c0.1-0.1,0.2-0.3,0.2-0.5V4.3z"/>
	<path class="st7" d="M47.5,8.7c0,0.5-0.2,1-0.6,1.4c-0.4,0.4-0.8,0.6-1.4,0.6c-0.3,0-0.6,0-0.8-0.1l0.2-1.1c0.1,0,0.3,0,0.4,0
		c0.1,0,0.1,0,0.3,0c0.2,0,0.4-0.1,0.5-0.2c0.1-0.1,0.2-0.3,0.2-0.5V2.4h1.2V8.7z"/>
	<path class="st7" d="M48.3,10.5h1.2V4.1h-1.2V10.5z M48.3,2.4v1.2h1.2V2.4H48.3z"/>
</g>
<path class="st3" d="M45.8,32.4L45.8,32.4c0-0.1-0.1-0.3-0.1-0.4c-0.4-1.4-1.5-2.9-3.7-2.8l0-0.5c-0.1-1.6-0.4-3.1-2-3.2
	c-0.8-0.1-1.8-0.1-2.7,0c0-0.2-0.1-0.3-0.1-0.5c-0.1-0.6-0.4-1.1-0.6-1.4c-1.4-2.1-4.1-0.1-4.2-0.1c0,0-0.5-0.4-0.5-0.4
	c-1.1-0.9-2.8-1-3.9,0c-0.6,0.4-1.2,1.2-1.5,1.9l-0.8-0.3c-2.6-0.8-4.5,0.5-5.5,2.9l-0.4,0.9l-0.9-0.3C17.2,27.7,15,28,14,29.4
	c-0.5,0.7-0.8,1.6-1,2.5c0,0-2.9-0.2-4,0.2c-0.9,0.2-1.6,0.7-2.2,1.4c-0.1,0.1-0.2,0.2-0.2,0.3c0,0.1-0.1,0.1-0.1,0.2
	c0,0-0.1,0.1-0.1,0.1c0.6,0.7,1.7,1.6,3.4,2c1.7,0.3,3.4-0.1,5.2-1.2c0.4,0.3,1.1,0.9,2.2,1.2c1.2,0.4,3.1,0.6,4.9-1.1
	c0.5,0.5,1.7,1.5,3.4,1.6c0.1,0,0.1,0,0.2,0c1.3,0,2.5-0.6,3.7-1.7c0.5,0.4,1.5,1.1,2.8,1.4c0.2,0.1,0.5,0.1,0.7,0.1
	c1.2,0.1,2.7-0.2,4.1-1.5c0.1,0,0.3,0.1,0.4,0.2c0.2,0.1,0.4,0.1,0.7,0.2c1.9,0.6,5.5,1,7.9-2.3C45.9,32.8,45.9,32.6,45.8,32.4z
	 M33.9,32.7L33.9,32.7C33.9,32.7,33.9,32.7,33.9,32.7C33.9,32.7,33.9,32.7,33.9,32.7z"/>
<path class="st0" d="M33.9,32.7C33.9,32.7,33.9,32.7,33.9,32.7L33.9,32.7C33.9,32.7,33.9,32.7,33.9,32.7z"/>
</svg>
